<?xml version="1.0" encoding="iso-8859-1"?>
<!-- Generator: Adobe Illustrator 19.0.0, SVG Export Plug-In . SVG Version: 6.00 Build 0)  -->
<svg version="1.1" id="Capa_1" xmlns="http://www.w3.org/2000/svg" xmlns:xlink="http://www.w3.org/1999/xlink" x="0px" y="0px"
	 viewBox="0 0 490 490" style="enable-background:new 0 0 490 490;" xml:space="preserve">
<g>
	<path d="M407.526,254.66c-6.577,0-12.615,2.35-17.321,6.253l-108.932-30.412c3.915-6.282,6.185-13.69,6.185-21.62
		c0-19.091-13.109-35.18-30.805-39.727v-27.854h29.538c0,0,24.658-45.953,26.677-141.302H177.13
		c0,98.012,26.678,141.302,26.678,141.302h32.43v46.985h10.208c11.355,0,20.596,9.241,20.596,20.595c0,6.251-2.81,11.85-7.222,15.63
		l-11.67-3.258l-14.497,3.895c-3.655-2.344-7.771-8.668-6.768-15.37l-19.779-5.104c-3.189,11.544,3.64,25.538,4.814,26.314
		l-111.947,30.08c-4.732-3.994-10.838-6.408-17.5-6.408c-14.994,0-27.186,12.193-27.186,27.176V490h379.423V281.836
		C434.712,266.853,422.519,254.66,407.526,254.66z M198.275,20.417h93.45c-1.236,21.025-5.393,69.067-18.492,100.468h-56.464
		C203.669,89.483,199.511,41.442,198.275,20.417z M109.553,279.64l121.64-32.682c14.762,5.713,26.529,1.729,31.52-0.437
		l117.753,32.864c-0.073,0.808-0.116,4.833-0.116,4.833H109.65C109.65,284.218,109.612,280.365,109.553,279.64z M82.138,275.094
		l2.454,9.124h-8.887C75.705,284.218,74.216,276.272,82.138,275.094z M414.295,469.583H75.705V304.635h33.945H380.35h33.944V469.583
		z M405.329,284.218l2.545-9.124c7.598,0.711,6.421,9.124,6.421,9.124H405.329z"/>
	<rect x="369.424" y="329.538" width="20.417" height="115.143"/>
	<rect x="302.112" y="329.538" width="20.417" height="115.143"/>
	<rect x="234.792" y="329.538" width="20.417" height="115.143"/>
	<rect x="167.48" y="329.538" width="20.417" height="115.143"/>
	<rect x="100.159" y="329.538" width="20.417" height="115.143"/>
</g>
<g>
</g>
<g>
</g>
<g>
</g>
<g>
</g>
<g>
</g>
<g>
</g>
<g>
</g>
<g>
</g>
<g>
</g>
<g>
</g>
<g>
</g>
<g>
</g>
<g>
</g>
<g>
</g>
<g>
</g>
</svg>
